<?xml version="1.0" encoding="UTF-8" standalone="no"?>
<svg width="1110px" height="901px" viewBox="0 0 1110 901" version="1.1" xmlns="http://www.w3.org/2000/svg" xmlns:xlink="http://www.w3.org/1999/xlink">
    <!-- Generator: Sketch 40.3 (33839) - http://www.bohemiancoding.com/sketch -->
    <title>Slice 1</title>
    <desc>Created with Sketch.</desc>
    <defs>
        <polygon id="path-1" points="554.9998 901 0 901 0 0 554.9998 0 1109.9996 0 1109.9996 901"></polygon>
    </defs>
    <g id="Page-1" stroke="none" stroke-width="1" fill="none" fill-rule="evenodd">
        <g id="Full-Frame-Logo-VECTOR_rev0816">
            <g id="Group-3">
                <mask id="mask-2" fill="white">
                    <use xlink:href="#path-1"></use>
                </mask>
                <g id="Clip-2"></g>
                <path d="M967.3496,444.79 C964.3496,451.48 957.9296,458.09 950.0396,457.6 C917.2596,457.79 884.4696,457.519 851.6796,457.72 C851.7806,474.69 853.6506,492.29 861.6696,507.519 C866.9596,517.78 876.1106,526.17 887.2196,529.62 C898.0596,532.96 910.2806,532.85 920.5396,527.66 C928.3896,523.94 935.0096,518.06 940.7196,511.59 C944.3296,508.24 948.8896,504.93 954.0596,505.21 C958.0096,506.2 961.1196,509.45 962.8296,513.05 C964.7696,517.17 962.5896,521.73 960.3096,525.22 C943.9906,547.7 914.1106,557.92 887.1396,553.26 C871.6296,551 857.0796,543.03 846.8606,531.15 C833.4106,516.269 827.4196,496.28 824.9106,476.75 C823.0996,460.28 823.0896,443.57 825.3606,427.14 C828.0706,407.71 834.9006,388.12 848.6796,373.71 C859.4196,362.67 873.7696,355.17 889.1296,353.42 C904.7696,351.28 921.7096,353.87 934.6196,363.43 C948.7306,373.66 958.0596,389.33 962.5896,405.99 C965.9696,418.58 968.0996,431.74 967.3496,444.79 L967.3496,444.79 Z M786.6106,532.03 C786.8606,538.7 781.5306,544.08 776.2006,547.29 C773.3296,549.38 769.9196,547.44 767.5496,545.55 C763.5306,542.16 759.4196,537.71 759.8206,532.06 C759.7196,490.7 759.7896,449.34 759.7596,407.99 C759.5306,399.31 758.7896,389.93 753.5596,382.65 C748.7006,375.94 739.8296,373.88 731.9596,374.39 C715.0396,375.25 699.7896,384.44 687.4696,395.53 C685.7896,397.42 682.8496,399 683.3096,401.94 C683.3096,443.94 683.2996,485.94 683.3206,527.94 C683.2196,531.7 683.6906,535.88 681.4006,539.13 C678.6396,543.12 674.9996,546.99 670.1796,548.3 C665.1296,547.519 661.3496,543.39 658.5596,539.4 C655.8296,535.83 656.6296,531.15 656.4506,526.98 C656.4396,489.31 656.4696,451.63 656.4596,413.96 C656.4596,404.46 656.5096,394.45 652.1606,385.74 C648.9506,378.83 641.4506,374.94 634.0706,374.5 C624.0596,373.97 613.9696,376.38 605.0706,380.95 C595.5496,385.66 587.6106,392.87 579.7696,399.9 C579.6796,442.91 579.7196,485.92 579.7406,528.92 C579.8496,532.91 578.9506,536.92 579.8796,540.87 C579.3296,539.95 578.7596,539.06 578.2006,538.17 C576.1396,542.23 572.7296,545.64 568.6206,547.6 C564.9106,548.87 561.5706,546.32 559.0196,543.94 C555.8606,540.78 552.7096,536.8 553.2006,532.04 C553.2006,479.67 553.1396,427.29 553.2296,374.92 C552.6806,369.9 555.9596,365.66 559.4696,362.5 C561.1696,360.9 563.4006,359.71 564.4006,357.5 C565.7696,357.96 567.1606,358.37 568.5596,358.81 C571.9596,361.39 575.7096,363.49 579.7306,364.95 C579.7306,368.27 579.6906,371.59 579.8096,374.91 C591.8396,365.41 605.2406,356.62 620.6106,353.93 C636.8796,350.66 655.1206,354.02 667.5396,365.52 C672.3206,368.88 676.2806,373.21 679.1606,378.29 C692.5306,367.88 707.0706,357.9 723.9506,354.38 C736.7996,351.48 751.1696,352.26 762.5396,359.42 C770.6796,364.95 777.4696,372.78 780.8896,382.09 C785.7896,394.8 786.4596,408.6 786.5896,422.07 C786.7096,458.72 786.5896,495.38 786.6106,532.03 L786.6106,532.03 Z M519.7006,316.31 C511.0196,309.04 505.5096,298.57 503.2206,287.59 C500.3196,275.29 500.7196,262.6 500.6496,250.06 C500.6696,215.74 500.6606,181.41 500.6696,147.09 C500.2796,142.15 503.6096,138.09 506.9706,134.92 C509.3796,132.69 512.5196,130.44 515.9906,131.53 C521.1606,133.92 524.8996,138.63 527.2596,143.71 C527.5396,183.15 526.9596,222.61 527.5306,262.05 C528.0996,273.69 529.5396,285.98 536.0096,295.99 C539.7196,301.71 546.2096,305.16 553.0196,305.17 C566.7196,304.27 578.8706,296.65 589.3706,288.33 C594.0796,284.59 598.2496,280.25 602.3296,275.85 C602.4696,234.57 602.3096,193.29 602.3796,152 C602.3896,149.02 602.2696,146 602.7896,143.05 C604.8706,138.21 608.6796,134.02 613.3796,131.62 C616.7306,130.09 620.1206,132.34 622.5306,134.54 C626.0096,137.75 629.5096,141.89 629.2006,146.93 C629.2806,199.64 629.2496,252.35 629.2096,305.06 C629.3606,309.82 626.0796,313.77 622.8206,316.87 C620.3796,318.93 617.3096,321.46 613.9106,320.31 C609.8096,318.31 606.6906,314.74 602.4006,313.04 C602.2806,309.27 602.4806,305.5 602.2996,301.74 C588.8496,312.28 574.4906,323.48 557.0596,325.95 C544.0696,327.9 529.6606,325.35 519.7006,316.31 L519.7006,316.31 Z M506.5296,544.59 C504.1096,546.67 501.1496,549.36 497.7006,548.15 C492.6606,546.29 489.4896,541.7 485.3196,538.57 C484.6096,533.99 484.3696,529.36 483.3996,524.83 C471.7006,536.38 458.3796,547.37 442.3096,552.019 C430.9196,555.41 418.4306,554.43 407.5696,549.69 C392.3096,542.269 380.1296,527.91 376.7596,511.11 C374.8496,501.09 375.3096,490.56 378.3996,480.82 C383.8596,464.2 397.2996,451.3 412.4906,443.28 C434.7396,431.37 459.7796,426.65 483.7496,419.49 C483.8596,409.37 484.4796,398.3 478.4596,389.55 C472.0596,379.42 459.5696,375.02 448.0296,375.17 C437.0196,374.6 426.2596,379.02 417.7196,385.75 C412.3996,389.71 408.6696,395.81 402.1296,398.02 C394.2896,401.85 384.8996,391.59 388.8196,384.03 C391.8296,377.38 397.6496,372.61 403.2096,368.12 C416.8196,357.17 434.6406,351.52 452.0796,352.97 C463.2196,353.89 474.3196,357.14 483.7596,363.24 C494.9396,370.8 504.3296,381.78 507.8196,395.03 C511.1396,406.07 510.4696,417.68 510.6296,429.06 C510.6696,452.38 510.6096,475.69 510.6696,499.01 C510.6806,510.7 510.3096,522.43 511.7496,534.06 C512.4196,538.29 509.1696,541.72 506.5296,544.59 L506.5296,544.59 Z M348.0296,370.01 C345.0196,374.71 340.7096,379.47 334.8996,380.35 C322.3096,383.48 312.3196,392.8 305.0596,403.18 C297.7006,413.48 292.4106,425.07 287.7896,436.8 C286.9906,438.78 286.0496,440.8 286.2096,443 C286.2696,472.68 286.1406,502.36 286.2196,532.04 C286.4796,538.12 281.8706,542.95 277.3296,546.33 C274.6406,548.62 270.5296,548.32 267.9596,546.01 C263.6496,542.63 259.1806,537.88 259.5996,531.99 C259.4996,482.33 259.6096,432.67 259.5496,383 C259.5396,378.92 259.6206,374.84 259.7496,370.77 C262.2996,365.83 265.9996,361.1 271.2596,358.92 C275.3196,357.86 278.5596,361.27 281.2296,363.8 C283.5596,366.36 285.9396,369.32 286.1896,372.91 C286.3906,381.88 285.8496,390.88 286.4506,399.85 C290.1606,393.45 293.0696,386.55 297.5596,380.63 C305.0096,370.75 314.3596,361.52 326.4596,357.78 C331.8096,356.03 338.5296,354.69 343.0596,358.99 C346.1296,361.55 350.5696,365.71 348.0296,370.01 L348.0296,370.01 Z M196.8706,357.73 C202.9196,357.89 208.9696,357.71 215.0196,357.81 C221.9996,357.44 227.8996,362.96 230.4906,369.04 C228.1206,375.35 222.0396,380.86 214.9796,380.5 C209.0296,380.54 203.0896,380.48 197.1496,380.51 C196.5996,389.34 196.9996,398.2 196.8906,407.04 C196.5606,417.04 197.4106,427.03 196.8706,437.02 C196.8496,468.68 196.9196,500.35 196.8296,532.01 C197.2696,538.73 191.7896,544.14 186.4596,547.33 C183.2696,549.58 179.7596,546.93 177.2896,544.91 C173.6806,541.57 169.7896,537.33 170.3906,532.019 C170.3396,481.53 170.3906,431.05 170.3596,380.56 C163.4196,379.88 155.3196,382.41 149.4506,377.52 C146.7406,375.34 143.8396,372.62 143.3996,368.99 C144.6296,364.21 148.8706,360.81 153.0796,358.63 C158.7006,357.12 164.5996,358.07 170.3396,357.73 C170.5196,345.17 170.0796,332.61 170.5996,320.06 C171.1696,308.52 174.7096,296.48 183.4506,288.45 C191.8706,279.07 204.7006,274.78 217.0696,274.76 C223.9906,274.3 230.5396,279.57 232.6896,285.92 C231.5996,290.88 227.2006,293.97 223.2406,296.62 C216.5496,296.82 209.1406,297.18 203.8706,301.86 C198.9396,306.04 197.4196,312.84 197.2596,319.03 C196.5496,331.91 196.9796,344.82 196.8706,357.73 L196.8706,357.73 Z M387.3296,137.35 C389.6206,134.49 392.6096,131.92 396.1406,130.78 C401.4996,129.96 406.9696,130.47 412.3796,130.28 C412.4106,123.86 412.3396,117.43 412.3996,111.01 C412.3596,100.64 411.9396,90.09 414.5196,79.94 C417.5096,67.67 426.5996,57.33 437.7796,51.73 C445.8096,48.25 454.8296,46.36 463.5496,47.64 C468.5096,49.2 472.8196,53.22 474.6896,58.08 C473.1606,64.44 466.7196,70 459.9796,69.4 C455.0196,69.64 449.9106,70.97 445.9696,74.09 C441.4506,77.98 439.6606,84.13 439.3296,89.9 C438.7006,103.34 438.6606,116.83 439.2006,130.28 C446.8396,130.44 454.4996,129.99 462.1196,130.68 C466.4106,133.34 471.3696,136.61 472.2496,141.99 C470.7196,146.65 466.6606,150.04 462.4306,152.21 C454.6606,153.75 446.6606,152.17 438.8296,153.25 C439.0796,158.15 439.2596,163.05 438.8906,167.95 C438.8396,213.65 438.9696,259.33 438.8396,305.03 C439.3296,310.08 435.5296,313.98 432.1806,317.19 C429.6496,319.56 425.7296,321.81 422.4106,319.53 C417.1096,316.18 411.8796,310.71 412.3906,303.96 C412.3996,253.63 412.3706,203.31 412.4306,152.98 C407.0896,152.65 401.7006,153.22 396.3906,152.55 C391.8296,150.98 387.6896,147.52 385.7296,143.06 C384.6696,141.04 386.2996,139 387.3296,137.35 L387.3296,137.35 Z M683.6906,52.99 C685.7306,52.32 687.7996,53.42 689.4806,54.52 C694.4196,58.06 698.9506,63.5 698.3296,69.97 C698.3896,147.94 698.3396,225.91 698.3496,303.88 C698.7596,310.29 694.0796,315.68 689.0706,319.01 C686.9006,320.6 683.8096,320.99 681.5596,319.38 C676.2696,316.08 671.3206,310.6 671.7296,303.95 C671.6796,225.99 671.7296,148.04 671.7096,70.08 C671.1296,62.49 677.0596,55.79 683.6906,52.99 L683.6906,52.99 Z M753.6906,53.04 C756.7596,52.24 759.5196,54.4 761.7196,56.27 C764.7806,59.07 767.8096,62.55 768.2096,66.87 C768.6106,72.56 768.2406,78.27 768.3796,83.97 C768.3706,157.32 768.4006,230.67 768.3496,304.02 C768.6906,310.66 763.7496,316.17 758.4296,319.44 C756.1506,321 753.0396,320.61 750.9196,318.98 C745.9806,315.61 741.3796,310.34 741.7406,303.98 C741.7306,225.97 741.7306,147.96 741.7406,69.94 C741.2006,62.41 747.1396,55.81 753.6906,53.04 L753.6906,53.04 Z M-0.0004,0 L-0.0004,901 L9.5796,901 C17.1096,885.89 23.9396,870.43 31.2096,855.19 C67.0996,778.51 102.9396,701.79 138.8796,625.12 C451.9196,625.09 764.9596,625.12 1078.0096,625.11 C1088.6696,624.93 1099.3496,625.49 1109.9996,624.78 L1109.9996,0 L-0.0004,0 Z" id="Fill-1" fill="#000000" mask="url(#mask-2)"></path>
            </g>
            <path d="M869.5898,387.5698 C876.7598,379.7898 887.2098,374.8898 897.8798,375.1498 C908.0798,374.7998 917.7398,380.2698 924.0898,387.9998 C934.7798,401.2298 939.0708,418.5398 939.2398,435.2898 C910.3298,435.2098 881.4298,435.3198 852.5298,435.2398 C852.5708,418.1298 857.9398,400.4098 869.5898,387.5698" id="Fill-4" fill="#000000"></path>
            <path d="M448.1201,452.1904 C459.8601,448.3194 471.7701,445.0204 483.6701,441.6904 C483.9001,460.3894 483.7201,479.0894 483.7701,497.7994 C472.7001,510.9694 458.9001,522.8094 441.9701,527.4104 C434.5901,529.2104 426.3501,530.3604 419.2101,527.0304 C409.5301,522.8304 402.8601,513.2904 400.8101,503.1104 C398.7401,492.3704 402.4801,480.9504 410.0901,473.1704 C420.3501,462.5804 434.3901,456.8394 448.1201,452.1904" id="Fill-6" fill="#000000"></path>
            <path d="M801.6396,646.7402 C803.7006,645.8302 805.6296,644.4002 807.9196,644.1202 C811.7096,646.2502 814.4006,650.5802 813.3896,655.0102 C813.8896,658.5502 813.2596,661.9692 812.0996,665.3202 C815.1206,666.9402 818.4996,667.9292 821.9406,667.3202 C824.7696,666.6792 827.1396,668.5992 829.4806,669.8602 C829.4806,673.0502 831.0596,677.1502 827.9296,679.4002 C823.7296,680.5302 819.3606,680.2402 815.0706,680.4292 C810.4696,682.4202 813.5096,688.2502 813.2296,691.9802 C812.3606,703.4602 813.0706,714.9692 812.5596,726.4602 C814.4006,728.4292 816.5496,730.0802 818.8896,731.4402 C820.4996,730.8302 822.1296,730.2402 823.7596,729.6602 C825.6296,730.3492 827.5796,730.8602 829.4296,731.6702 C830.4596,733.6302 830.1696,735.9502 830.5596,738.0902 C829.3796,739.5592 828.2096,741.0402 827.0306,742.5102 C822.9796,742.9002 818.8896,743.1392 814.9506,744.2192 C807.2196,741.9202 801.4996,735.6302 798.1106,728.5302 C798.6696,727.6502 799.2096,726.7602 799.7196,725.8602 C799.1396,723.8002 797.0896,721.6102 798.7996,719.5592 C800.2696,717.8092 799.2996,715.7802 798.6296,713.9502 C799.9406,711.3702 799.8396,708.6902 798.4296,706.2002 C800.2006,703.6202 799.9906,700.5102 798.7196,697.7802 C799.2406,696.8492 799.7696,695.9202 800.2996,695.0102 C799.6506,693.3602 799.0196,691.7102 798.4406,690.0592 C799.0706,689.1392 799.7096,688.2302 800.3496,687.3302 L800.2406,685.8492 C799.4196,684.2102 798.6606,682.5592 797.9406,680.9002 C797.5306,680.6102 796.7196,680.0192 796.3206,679.7302 C793.4196,679.5592 790.3796,680.0902 787.6506,678.9102 C787.8796,676.2502 787.5496,673.6102 787.3796,670.9692 C788.7596,669.1792 790.4296,666.9502 792.9796,667.1702 C795.4806,667.2002 797.7096,666.0592 799.9006,664.9802 C799.3706,661.0402 799.0196,657.0702 798.2806,653.1702 C799.2096,650.9292 800.4196,648.8302 801.6396,646.7402" id="Fill-8" fill="#000000"></path>
            <path d="M362.6699,665.8604 C368.3399,665.1704 374.0799,665.7694 379.4599,667.7194 C384.6399,669.7694 387.9099,674.5704 391.8599,678.2594 C395.0499,680.9504 393.4699,685.5304 393.3299,689.1204 C391.4799,691.6104 387.8399,691.8704 384.9999,691.5004 C382.0799,688.5494 379.2799,685.5004 376.9199,682.0894 C375.1899,679.3394 372.0899,677.7994 368.9999,677.2594 C365.4399,677.6904 361.9999,678.7804 358.5699,679.7594 C356.4499,680.7804 355.2099,682.9404 353.7799,684.7104 C354.2499,687.6904 353.1399,690.3304 351.6899,692.8494 C351.9399,701.0304 350.9399,709.3604 352.9499,717.4104 C354.3099,721.0404 356.2099,724.4504 358.3299,727.7004 C360.8899,728.2804 363.5399,728.5004 365.9799,729.5994 C372.7299,729.7804 381.0099,727.1604 383.3499,720.1204 C384.3799,717.5594 387.1899,716.1394 389.6199,715.2004 C392.5599,717.1704 394.9799,719.8894 396.3799,723.1604 C395.0199,728.8304 390.1699,732.3494 386.6699,736.6604 C384.7399,739.0004 381.4699,738.5704 378.8299,739.2694 C375.8399,740.1704 372.9799,741.4604 370.0099,742.4204 C367.2999,742.0494 364.6299,741.4294 361.8799,741.6504 C358.2799,740.1504 354.9799,737.8894 351.0999,737.1604 C349.6699,736.1794 348.1499,735.3394 346.8099,734.2694 C344.3699,729.9804 341.9799,725.4694 341.1499,720.5594 C340.3999,719.7004 339.6499,718.8494 338.8999,718.0194 C338.2099,714.2994 337.3699,710.6904 338.8999,707.0594 C338.1399,706.3704 337.3799,705.6904 336.6299,705.0194 C336.6799,700.5894 336.0799,695.8204 338.8899,692.0494 C338.5899,691.4204 337.9999,690.1394 337.6999,689.5004 C339.4999,686.4694 340.1099,682.8804 342.2199,680.0304 C342.3299,679.0704 342.4499,678.1204 342.5699,677.1904 C345.4099,674.5004 348.0999,671.6604 350.8999,668.9404 C354.9499,668.4604 358.8099,667.1104 362.6699,665.8604" id="Fill-10" fill="#000000"></path>
            <path d="M418.9199,671.0195 C419.3299,667.8395 422.7899,666.9505 425.1399,665.5395 C429.2299,666.4195 432.1299,669.9005 432.6299,673.9995 C431.7999,676.5895 431.2899,679.1695 431.9499,681.8795 C431.2899,684.5895 431.3399,687.3495 432.0699,690.0495 C431.3199,692.3705 431.0799,694.8095 431.9599,697.1395 C430.4399,702.3895 432.8699,707.6505 432.5799,712.9805 C432.0899,716.7005 433.2999,720.3705 432.6899,724.0895 C434.8999,726.1295 436.8299,729.0595 440.1999,729.0195 C442.8999,730.1105 445.3499,728.4405 447.9299,727.8495 C450.4599,727.7005 453.2699,728.1395 455.5099,726.6605 C457.4899,725.1605 458.8999,723.0595 460.4999,721.1905 C459.9199,715.3895 463.2999,709.5705 460.9499,703.8605 C459.7999,701.8495 460.2299,699.6695 460.9899,697.6395 C460.5299,696.6905 460.0499,695.7695 459.5799,694.8495 C460.1099,693.2105 460.6599,691.5895 461.2299,689.9805 C460.0699,687.3495 459.8499,684.5095 461.1399,681.8895 C460.6099,680.9805 460.0999,680.0895 459.5799,679.2005 C461.0499,676.3605 461.1199,673.2405 460.7399,670.1395 C461.5999,668.7895 462.6899,667.5895 463.9799,666.6295 C466.6399,666.4805 469.3199,666.6205 471.9599,666.9195 C473.3299,667.9195 474.2899,669.3605 475.3299,670.6795 C475.4699,678.1395 474.1999,685.5805 474.9899,693.0395 C474.6099,703.6795 473.9899,714.4905 476.1699,724.9605 C475.7799,726.5495 475.2499,728.1795 475.5899,729.8495 C476.2199,733.3795 474.9699,736.8205 474.4199,740.2695 C471.9399,740.3305 469.4799,740.5495 467.0199,740.7895 C465.3599,738.5095 463.6499,736.2695 461.9799,734.0095 C460.7099,734.1605 459.1999,733.9405 458.3499,735.1295 C456.2499,737.2405 453.8999,739.0895 451.2699,740.4905 C450.2199,740.1695 449.2099,739.9005 448.1699,739.6105 C445.4999,741.4505 442.2399,741.4695 439.1499,741.9005 C436.0299,740.8095 432.7199,740.7495 429.4899,740.3495 C425.1599,738.7595 421.9199,735.0195 420.2199,730.8395 C419.0599,724.9005 418.5299,718.8705 417.6999,712.8795 C417.9699,710.2195 418.4199,707.5705 418.1499,704.8895 C418.6799,701.9405 418.4199,699.0305 417.6799,696.1695 C418.7099,694.0995 418.7599,691.9505 417.5299,689.9605 C418.8799,687.0305 418.5999,684.0305 417.5299,681.1105 C419.3299,677.9195 417.4499,674.2995 418.9199,671.0195" id="Fill-12" fill="#000000"></path>
            <path d="M527,668.7998 C530.9,668.3898 534.3,666.2798 537.95,665.0098 C542.68,666.0998 546.76,668.7898 551.43,670.0298 C553.53,670.8198 555.03,672.6508 557.08,673.5498 C558.62,674.0798 559.78,672.6698 561,672.0098 C564.01,669.8698 567.71,669.2798 571.01,667.7598 C574.26,666.3398 577.54,663.4408 581.18,665.6598 C586.21,663.9008 589.67,668.9008 593.57,671.1998 C597.38,673.0998 599.1,677.1598 600.47,680.9298 C600.33,683.3098 600.24,685.7308 601.01,688.0298 C600.5,690.0298 600.019,692.0798 600.55,694.1398 C601.03,696.7098 599.87,699.2798 600.45,701.8498 C600.95,704.6198 599.62,707.4298 600.71,710.1508 C602.08,714.3798 600.46,718.6998 600.16,722.9298 C601.82,728.6998 601.63,735.1508 598.49,740.4098 C596.11,742.1508 592.32,743.7198 590.09,740.9198 C587.5,739.1298 587.93,735.6908 587.29,732.9998 C586.35,728.3098 587.3,723.5798 587.14,718.8698 C588,708.9498 587.11,698.9998 587.33,689.0598 C587.72,684.6908 584.99,681.0498 582.019,678.2098 C578.91,678.6198 575.82,678.5898 572.78,677.8098 C568.68,679.5098 565.3,682.4808 561.6,684.8498 C559.6,689.4098 561.04,694.3698 559.9,699.0598 C560.31,700.6598 561.01,702.2998 560.59,703.9998 C559.84,707.0698 560.81,710.1908 560.35,713.2898 C560.1,714.8798 560.41,716.4698 560.71,718.0498 C559.34,724.0198 562.04,730.2398 560.23,736.1998 C559.29,739.0298 556.73,741.0298 553.99,741.9698 C551.57,741.7598 549.66,739.9698 547.51,739.0098 C547.51,738.4098 547.52,737.2098 547.53,736.6108 C546.45,735.9298 545.37,735.2598 544.3,734.6108 C544.53,731.6698 545.4,728.5998 543.62,725.9298 C544.24,724.9998 544.86,724.0798 545.49,723.1698 C544.39,720.2498 545.18,717.2898 545.75,714.3798 C543.91,711.7898 544.49,709.0098 545.66,706.2898 C544.21,704.0298 544.21,701.4898 545.24,699.0698 C543.79,694.9698 546.86,690.9008 544.78,686.8608 C545,686.1198 545.45,684.6398 545.68,683.9008 C544.47,682.1698 543.32,680.4098 542.21,678.6398 C538.74,678.2398 535.21,676.8198 531.81,678.3198 C523.46,678.8798 518.44,687.3398 517.94,694.9698 C520.12,705.1798 519.1,715.6508 518.74,725.9808 C518.77,728.4098 520.07,730.5598 520.56,732.9098 C520.29,736.4098 517.99,739.5498 514.93,741.2198 C512.24,741.5098 509.55,740.5298 506.87,740.2998 C505.66,735.6508 504.24,730.9298 505.12,726.0798 C504.07,716.7698 505.46,707.3698 505.32,697.9998 C506.09,693.8298 503.74,690.0598 503.9,685.9098 C503.1,682.7198 504.44,679.6108 504.2,676.4198 C504,673.8298 504.79,671.3198 505.72,668.9498 C507.75,668.4298 509.73,667.6908 511.79,667.2308 C514.6,667.9098 517.14,669.4008 519.11,671.5198 C521.73,670.5898 524.24,669.3198 527,668.7998" id="Fill-14" fill="#000000"></path>
            <path d="M1033.5996,667.5898 C1036.0096,666.8698 1038.3296,665.8698 1040.5196,664.6198 C1042.2296,665.7698 1044.0706,666.8298 1045.4696,668.3898 C1046.9006,670.2308 1046.3796,672.7498 1046.5706,674.9408 C1046.7806,678.2998 1042.9396,679.6798 1041.7306,682.4898 C1040.3896,684.3798 1040.5306,686.7098 1040.6106,688.9198 C1037.3106,694.4898 1035.3606,700.6698 1034.2306,707.0098 C1033.6606,710.9898 1030.5196,714.1198 1030.2696,718.1598 C1030.2496,720.5698 1028.6296,722.4898 1027.5306,724.5098 C1025.2896,727.4808 1026.7696,731.6398 1024.8396,734.7198 C1021.9506,738.7998 1020.4596,743.6698 1019.3396,748.4808 C1017.4006,750.9298 1015.0096,753.1108 1013.9596,756.1398 C1011.7406,758.1698 1010.0596,760.7998 1007.4596,762.4008 C1004.9406,764.2198 1001.8206,764.8098 999.0496,766.1198 C996.7996,766.1998 994.5496,766.4098 992.4996,767.3698 C989.8206,765.4698 986.3296,764.2698 984.9906,761.0098 C982.6896,758.2308 985.7096,754.5098 988.3696,753.5098 C993.9506,754.1198 999.2496,751.8398 1003.8396,748.8608 C1006.0706,746.3798 1007.4996,743.2308 1008.6796,740.1398 C1008.4596,737.7198 1008.0796,735.3098 1008.2006,732.8898 C1006.5306,728.4298 1003.7496,724.5198 1002.2006,720.0198 C1000.5306,715.2808 997.6106,711.0198 996.5996,706.0598 C996.4806,704.6398 995.5396,703.5398 994.8296,702.4198 C994.6396,701.5798 994.4596,700.7498 994.2996,699.9298 C992.3206,697.8498 990.6796,695.4008 990.2996,692.4998 C989.8096,688.1398 987.1696,684.5498 985.2196,680.7498 C985.2696,679.9808 985.3696,678.4408 985.4106,677.6698 C984.4296,676.0998 983.3106,674.6108 982.4996,672.9598 C982.7806,670.4808 984.6506,668.5598 985.7006,666.3698 C987.9596,666.5898 990.2596,666.4698 992.4506,665.7498 C996.5706,666.9198 997.5606,671.3798 999.0196,674.8608 C1000.0896,678.6298 1001.8606,682.1598 1003.0096,685.9098 C1003.8606,690.0498 1006.8206,693.2898 1008.3496,697.1798 C1009.1696,699.6298 1008.9106,702.4098 1010.3396,704.6698 C1013.0196,708.5598 1011.6696,713.7308 1014.8696,717.4498 C1015.6896,717.4898 1016.5096,717.5398 1017.3396,717.5998 C1019.4506,713.9808 1019.1696,709.6908 1020.5596,705.8398 C1020.0706,700.0308 1024.6206,695.4408 1024.7306,689.7498 C1025.9506,686.5398 1028.1396,683.5598 1028.2306,680.0498 C1027.8896,675.2198 1031.8206,671.7498 1033.5996,667.5898" id="Fill-16" fill="#000000"></path>
            <path d="M712.9297,667.54 C715.0307,667.36 717.1297,666.92 719.2497,666.85 C722.0497,668.42 724.2597,670.82 726.8697,672.68 C730.0707,670.42 733.3397,668.27 736.8097,666.43 C739.2897,666.65 741.7307,666.22 744.1397,665.66 C746.6507,666.05 749.1397,666.53 751.6607,666.95 C754.8297,668.76 758.2097,670.54 760.6397,673.34 C763.2597,677.22 768.0897,680.85 766.0707,686.12 C766.7807,688.96 766.6697,691.88 766.1297,694.74 C767.0707,698.19 765.0497,701.6 766.2197,705.02 C765.9997,710.66 766.8797,716.29 767.5497,721.88 C766.5897,724.96 768.0797,728.07 767.2897,731.16 C766.7997,733.08 767.3897,735.02 767.3897,736.97 C766.4807,738.75 765.1507,740.31 763.6197,741.59 C761.1397,742.2 758.4897,741.83 755.9997,741.51 C753.1607,740.77 752.7097,737.52 751.7097,735.22 C753.8697,730.94 752.9297,726.31 751.4997,721.981 C752.8397,713.02 751.8797,703.92 752.4397,694.9 C751.4807,691.95 751.7007,688.92 752.0897,685.9 C750.7997,682.26 748.0197,678.99 744.3097,677.731 C740.0597,678.19 735.9697,679.92 731.6107,679.63 C729.7097,681.36 727.6697,682.981 725.9997,684.95 C724.9807,686.77 724.4297,688.8 723.6797,690.75 C724.5497,692.75 725.5597,694.82 725.3697,697.09 C724.1607,706.34 725.8797,715.62 725.2097,724.92 C726.0307,728.31 723.9807,731.63 725.1297,734.981 C726.4697,739.05 722.2097,741.7 719.2597,743.481 C715.6507,742.22 712.7997,739.82 710.4507,736.88 C711.5397,732.57 709.2197,728.13 711.3207,724.07 C711.3297,719.94 712.9897,715.22 709.4807,711.97 C709.9897,711.49 711.0307,710.54 711.5397,710.06 C711.5707,709.6 711.6297,708.68 711.6607,708.22 C710.9297,706.981 709.7097,705.68 710.6107,704.18 C712.2807,700.55 710.2197,696.59 711.5097,692.84 C710.9697,692.34 709.8897,691.35 709.3497,690.86 C709.2897,685.481 709.4007,680.09 709.8697,674.731 C710.4897,672.18 711.9597,669.95 712.9297,667.54" id="Fill-18" fill="#000000"></path>
            <path d="M931.2402,673 C931.4202,668.59 936.5802,665.67 940.4502,667.78 C943.9602,669.4 944.1202,673.72 945.0192,676.98 C948.4502,676.91 950.2102,673.55 952.9102,671.92 C955.7102,670.05 958.1302,666.68 961.8802,667.08 C964.8892,667.83 967.2602,670.23 968.5302,673.01 C968.2402,676.31 966.7302,679.89 963.4602,681.24 C958.6392,683.56 953.5992,685.47 949.6502,689.21 C949.1802,693.34 946.3802,696.51 944.5592,700.09 C944.3702,702 946.3302,703.72 945.4902,705.68 C944.4302,708.43 946.0402,711.29 945.1302,714.06 C944.1202,716.36 946.0702,718.54 945.5192,720.88 C944.9692,724.53 945.9502,728.22 945.0992,731.85 C946.8202,736.52 943.3492,742.84 938.0592,742.78 C934.5592,743.48 931.5102,740.24 931.5302,736.9 C931.2902,730 930.9392,723.05 931.8302,716.18 C931.6202,714.06 931.6802,711.93 931.9802,709.83 C931.4002,707.87 930.5702,705.99 930.1702,704 C931.9902,697.58 932.1892,690.67 931.3202,684.07 C929.8002,680.48 931.3602,676.72 931.2402,673" id="Fill-20" fill="#000000"></path>
            <path d="M216.3398,708.2002 C217.0798,710.2102 216.5298,712.3092 216.0198,714.3002 C216.4098,715.4102 216.8098,716.5192 217.2198,717.6302 C216.3798,719.8002 215.5998,721.9902 214.9598,724.2402 C211.1198,726.0502 207.7298,728.6502 204.0798,730.7902 C201.2698,730.4802 198.6198,729.3202 195.7698,729.1802 C192.9798,727.3402 189.1898,726.4602 187.9398,722.9902 C186.5898,721.1302 187.4798,718.9202 187.8398,716.9102 C185.2098,714.5502 185.8098,711.0302 185.4098,707.8892 C185.0498,705.0102 182.5098,702.2002 184.3298,699.3702 C185.9598,696.1302 185.6998,692.5192 185.5398,689.0302 C188.2798,683.4602 193.6598,678.7802 199.9798,678.1202 C203.8598,679.0102 208.0598,679.2002 211.4998,681.4202 C213.7298,682.7302 215.5598,684.5802 217.3698,686.4102 C215.9798,690.1202 216.6198,694.1302 215.7398,697.9402 C215.9798,701.3602 215.2698,704.8802 216.3398,708.2002 M232.8098,733.1702 C232.3498,729.6802 230.1698,726.5192 230.7998,722.9002 C230.4798,718.8602 231.8298,714.9002 231.1898,710.8892 C230.7398,705.6102 232.3498,700.0402 229.9898,695.0902 C230.5998,692.8002 230.7998,690.4402 230.2898,688.1302 C230.1098,679.7402 230.9998,671.3892 230.3098,663.0002 C230.9098,660.6102 231.2898,658.1902 230.6298,655.7692 C231.1898,654.6202 231.7398,653.4702 232.2898,652.3302 C229.8798,648.2102 233.8298,642.0992 229.0298,639.4002 C227.0098,639.5002 225.0698,640.6392 223.0298,640.0502 C221.2598,639.6102 219.3198,639.4102 217.8598,640.7502 C214.6298,642.8802 217.5998,646.9102 216.2898,649.8802 C215.1498,652.9902 217.5098,656.2002 215.8598,659.2502 C217.1498,662.1902 216.8998,665.3002 215.4398,668.1302 C214.7998,668.5102 213.5298,669.2692 212.8898,669.6502 C210.1598,667.7202 207.4598,665.6602 204.1898,664.7602 C201.4798,665.6802 198.6898,665.1502 195.9598,664.6802 C192.8098,665.3702 189.7598,666.5002 186.5698,667.0592 C180.3598,668.9002 176.2398,674.1602 172.2998,678.9502 C172.8298,683.2202 170.5798,687.0402 169.4798,691.0402 C169.6698,693.5002 170.0098,696.0802 168.6398,698.3202 C169.3798,700.8402 169.5198,703.4702 169.0198,706.0702 C170.0598,710.0992 170.8398,714.1602 170.5898,718.3492 C171.2198,719.2002 171.8398,720.0592 172.4698,720.9202 C172.2398,721.7302 171.7698,723.3602 171.5398,724.1702 C172.7298,726.0002 173.7198,728.0402 175.4398,729.4702 C178.1998,731.7692 180.3398,734.7902 183.5098,736.5992 C185.2898,737.5192 186.8398,738.7802 188.1398,740.3202 C193.2898,741.9302 198.6298,744.9902 204.1198,742.6902 C204.6198,742.8802 205.6098,743.2602 206.0998,743.4602 C210.9398,741.7692 214.4098,737.9002 218.5098,735.0192 C222.0898,736.9102 224.3998,740.4602 227.8998,742.5002 C229.4098,741.4902 231.0398,740.6102 232.3898,739.3702 C232.8598,737.3402 232.8298,735.2202 232.8098,733.1702" id="Fill-22" fill="#000000"></path>
            <path d="M640.1104,690.1797 C642.2594,687.5497 643.8494,684.5397 645.8204,681.7997 C647.9904,680.1297 650.3394,678.6197 652.8794,677.5797 C657.5804,677.8897 662.5194,678.5597 666.1204,681.9297 C667.3204,685.7597 669.9294,688.8207 672.4104,691.8797 C672.1294,694.5707 669.6204,696.2407 667.4504,697.4497 C665.7194,696.4697 663.7804,695.9997 661.9204,696.8697 C659.4204,698.1597 657.0004,695.6397 654.4404,696.5597 C651.6104,697.1397 648.6604,696.2307 645.9204,697.3497 C642.0894,699.1397 637.1104,693.6107 640.1104,690.1797 M685.4604,721.8497 C684.8794,721.7407 683.7404,721.5307 683.1704,721.4197 C682.1604,720.6697 681.1294,719.9907 680.0704,719.3697 C677.5404,720.6797 674.5094,721.4907 672.7694,723.9097 C670.5494,726.4007 668.5894,729.6797 665.0094,730.2697 C661.9404,730.4807 658.8604,730.7497 656.0004,731.9807 C653.6704,731.0597 651.1604,730.4907 649.0704,729.0797 C644.3304,725.5707 641.5094,720.1997 638.5704,715.2407 C639.6394,712.8797 639.6904,709.2897 642.7994,708.6997 C655.5594,708.6197 668.3094,708.4597 681.0704,708.7307 C682.6894,709.1197 683.4804,707.5597 684.4404,706.5997 C684.4104,703.0397 684.5404,699.4907 684.4904,695.9407 C685.0304,692.4197 682.6894,689.2897 683.4604,685.7407 C681.5894,682.3697 679.4904,679.1397 677.3394,675.9597 C674.2694,673.6597 670.8094,671.6907 668.5594,668.4907 C664.7804,666.8097 660.5704,666.8397 656.7294,665.3897 C655.4694,665.4197 654.2504,665.6907 653.0194,665.8797 C649.8794,665.1507 646.6894,666.0397 644.3394,668.2407 C641.7004,670.7807 638.6504,672.7997 635.4904,674.5997 C632.5304,677.4907 631.0594,681.4907 628.5004,684.6907 C628.4694,685.7807 628.4504,686.8697 628.4404,687.9807 C623.9904,692.3297 626.0704,698.7997 624.2104,704.0897 C624.3604,705.4407 625.6794,706.2307 626.3394,707.3497 C626.1904,710.4497 625.0994,713.7497 626.5304,716.7307 C627.4794,718.6997 627.9904,720.8207 628.3394,722.9907 C631.5594,731.9597 639.7104,737.7807 647.5494,742.5197 C653.1104,742.5307 658.9004,743.0307 664.4904,742.3397 C668.6104,740.3097 673.6104,740.0497 677.1294,736.9007 C681.3394,735.2897 684.4204,731.7997 686.5304,727.9297 C687.1204,725.8797 685.8394,723.8297 685.4604,721.8497" id="Fill-24" fill="#000000"></path>
            <path d="M305.1802,709.3301 C303.8502,712.4901 301.8002,715.8101 303.2502,719.3401 C301.3202,722.5191 299.2502,725.8901 295.7392,727.5301 C293.6002,728.2801 291.4692,729.0701 289.5602,730.3201 C282.7002,730.4601 274.4402,727.6601 272.2702,720.4601 C270.8202,716.3501 267.9802,712.4601 268.5002,707.9101 C268.2702,701.9301 268.0702,695.8701 269.4802,690.0191 C269.2902,685.6201 273.2302,682.7501 276.0902,680.0191 C278.2602,677.8801 281.3802,678.7201 284.0802,678.5401 C287.8302,677.9901 291.4302,679.8801 295.1702,678.8101 C298.7002,680.9801 300.6502,684.8001 303.1502,687.9701 C303.2502,689.7201 303.2702,691.5101 303.8202,693.2001 C305.3802,698.4201 305.3702,703.9301 305.1802,709.3301 M319.2302,699.1201 C318.8802,696.5601 318.7102,693.9901 318.6902,691.4101 C317.4692,689.8601 316.8002,688.0101 316.2002,686.1601 C314.4102,683.3701 313.8702,679.9601 311.7102,677.4001 C309.0602,674.1001 305.9102,671.1501 302.4202,668.7801 C296.0202,667.0901 289.6502,665.2001 283.0202,664.7401 C280.9802,665.4601 279.0202,666.8401 276.7902,666.0001 C273.4002,667.1701 269.5102,667.3201 266.7802,669.9201 C262.7702,673.6501 259.4802,678.1901 257.0402,683.0801 C256.0102,686.6701 255.0202,690.3601 255.1202,694.1401 C254.2502,696.3001 252.9302,698.4801 253.5602,700.9201 C253.5902,707.9701 254.7802,714.9601 256.4302,721.8101 C257.8502,725.0701 259.7002,728.1801 261.8102,731.0501 C265.6902,734.3401 269.8202,737.3701 274.1002,740.1201 C277.0802,740.7691 280.0802,741.4001 282.9202,742.6001 C285.3702,742.6801 287.8502,742.5501 290.2802,743.0101 C292.1102,742.1901 293.7902,740.7901 295.8802,740.7501 C300.0602,740.7401 303.0402,737.3301 306.4692,735.4201 C309.9692,732.3901 314.0402,729.0001 314.5602,724.0801 C315.5702,720.9401 316.9692,717.9201 318.4602,714.9801 C318.6902,709.6901 319.5602,704.4201 319.2302,699.1201" id="Fill-26" fill="#000000"></path>
            <path d="M884.9102,723.9805 C882.8892,725.7895 880.7202,727.4195 878.5302,729.0005 C874.9102,730.6395 870.8002,730.2305 866.9392,730.5705 C863.2802,730.6695 860.5902,727.7595 859.3602,724.5805 C857.4902,721.9605 859.3802,718.9605 860.6802,716.5495 C863.9302,711.7695 869.5802,709.6205 874.1392,706.3605 C878.8702,707.3395 883.0192,704.8605 887.1202,702.8795 C889.3602,705.5195 890.7902,708.9105 888.8602,712.1905 C889.3402,713.1295 889.8092,714.0495 890.3202,715.0005 C888.5902,718.0305 887.6302,721.6205 884.9102,723.9805 M903.6892,731.9505 C903.1892,730.0395 901.5192,728.2805 902.3402,726.2405 C903.0902,723.8895 902.6602,721.5095 902.0502,719.2105 C902.8492,716.8395 902.5902,714.3895 902.2692,711.9805 C902.6302,709.3095 902.9002,706.5995 901.9802,704.0095 C903.0802,700.7405 901.8002,697.3605 902.4302,694.0395 C902.9102,691.5995 901.1102,689.4405 901.4502,687.0005 C901.8602,682.2695 898.2002,678.6205 896.2202,674.6605 C895.4502,674.1905 894.6892,673.7305 893.9502,673.2805 C893.0102,672.2195 892.4392,670.7195 891.0902,670.1295 C886.7802,668.5495 882.8802,665.7195 878.0992,666.0395 C874.3492,664.3095 870.7692,666.8395 866.9602,666.5095 C863.2202,666.5395 859.9402,668.9195 857.1702,671.2305 C853.7102,674.5705 848.8092,677.0195 847.6302,682.0805 C846.7302,684.1695 848.9002,685.7895 849.7602,687.4805 C852.5902,688.0005 855.6392,689.3395 858.4802,688.3495 C862.5702,685.5995 864.8302,680.2995 870.0802,679.2805 C874.7802,679.3095 879.7802,678.4805 884.0502,680.9905 C885.7692,683.2105 888.8802,685.0005 888.4302,688.2195 C886.4802,691.3305 883.3002,694.7895 879.2402,694.1695 C874.4702,693.5195 870.6802,697.3895 865.8802,696.6395 C857.8492,700.8895 850.7402,707.0705 845.6302,714.5995 C845.3092,716.8205 845.4392,719.0995 844.7692,721.2805 C845.9202,724.2595 846.8092,727.3095 846.5192,730.5595 C848.4302,733.5705 851.1802,735.8895 853.6202,738.4605 C855.9602,740.5705 858.4902,743.2405 861.9702,742.5195 C864.7202,744.2995 868.1702,745.0805 871.0702,743.0805 C877.3492,742.1695 881.8702,736.7595 888.2902,736.4605 C890.6702,735.8395 891.2602,738.8095 892.2402,740.3095 C895.5192,742.6795 899.8302,742.9695 903.0192,740.2695 C903.3892,737.5095 904.9802,734.6905 903.6892,731.9505" id="Fill-28" fill="#000000"></path>
            <path d="M470.8799,774.8604 C473.1899,772.7404 476.0199,771.2304 478.9999,770.2904 C481.4599,770.6504 483.9399,770.9204 486.4399,770.7104 C487.7799,772.0194 489.5499,773.0494 490.3899,774.7994 C490.2699,776.9804 490.8199,779.5194 489.4499,781.4104 C486.6399,782.6694 483.4799,782.7994 480.6099,783.8494 C477.0899,785.4404 475.3699,789.0494 473.2799,792.0594 C473.8899,795.5994 474.9899,800.2004 479.0599,801.1694 C482.2099,802.9104 486.4899,799.5594 488.8999,803.0404 C492.1899,805.0994 489.4699,808.6304 488.5499,811.2504 C486.3399,811.4104 484.1899,811.9294 482.0299,812.3304 C480.0599,811.5994 478.0299,810.2694 475.9599,811.5404 C475.2399,813.2594 474.4999,814.9804 473.7799,816.7104 C474.9299,819.9504 473.7399,823.3704 474.4399,826.6694 C476.2299,833.3494 474.8099,840.2904 475.2299,847.0994 C474.9799,855.4604 476.7599,863.8494 475.3099,872.1904 C474.6499,874.9804 472.4799,876.8304 469.9399,877.9294 C468.5599,879.2804 467.0399,877.5704 465.7799,877.0004 C463.9699,875.9294 462.5299,874.3304 461.3499,872.6204 C459.8899,870.9804 461.6299,868.9404 461.3699,867.0994 C459.9899,863.0094 463.0399,859.0194 461.0499,854.9604 C462.0999,851.3304 460.9099,847.5994 461.9599,843.9694 C461.5099,841.2904 461.3099,838.5804 462.2299,835.9804 C461.3999,833.9904 460.9299,831.7994 462.0099,829.8204 C463.4299,827.4194 460.7599,824.8604 462.1699,822.4604 C463.6099,819.5194 461.5899,816.5894 461.2499,813.6394 C457.9199,812.5804 454.5199,811.7304 451.0199,811.6694 C449.9899,809.5404 447.6299,807.6204 448.1999,805.0494 C449.0199,803.2994 450.8099,802.2694 452.2399,801.0594 C454.7699,798.7804 459.0399,802.3204 461.0499,799.0994 C463.1399,797.3094 462.2199,794.5194 462.1199,792.1604 C462.6499,789.6304 462.0399,787.0094 462.4999,784.5094 C464.1799,780.6394 466.0899,775.4804 470.8799,774.8604" id="Fill-30" fill="#000000"></path>
            <path d="M203.3165,786.0339 C204.7665,786.0229 206.0965,785.3129 207.4765,784.9639 C209.3365,786.1529 211.2965,787.2729 212.8565,788.8739 C213.2565,790.3929 213.0265,791.9729 213.0265,793.5339 C208.4665,795.0439 203.0965,796.4639 201.2565,801.5039 C201.1065,803.9639 201.4565,806.4639 201.6865,808.9239 C203.2165,811.2229 205.9965,810.2939 208.2065,809.9939 C210.0265,810.4729 211.6765,811.4139 213.3865,812.1829 C213.9165,813.5739 214.5965,814.9429 214.8865,816.4539 C214.0465,818.1339 212.7965,819.5739 211.5865,821.0139 C209.7665,820.5939 207.9665,820.0139 206.0965,819.8639 C204.0965,821.2139 202.4665,823.0229 200.8065,824.7639 C202.8065,831.0839 202.1665,837.8339 202.8565,844.3529 C202.1565,847.0539 201.8065,849.8529 203.1565,852.4429 C201.1465,856.3439 204.2465,860.6639 201.8865,864.5629 C202.4065,865.7539 202.9265,866.9429 203.4665,868.1429 C202.7265,869.9939 202.1165,871.9029 201.6065,873.8439 C199.4865,874.4939 197.4465,876.1029 195.1665,875.8239 C193.0865,874.3639 191.4765,872.3639 189.7065,870.5739 C189.7865,867.1339 189.6365,863.5539 191.4865,860.5039 C189.8665,857.2139 191.7265,853.3339 189.6665,850.2329 C189.9265,841.3239 190.2365,832.3529 189.6365,823.4729 C186.7665,821.1529 183.3665,820.3739 179.7465,821.0739 C179.7865,818.2939 179.8965,815.4829 178.7665,812.8839 C181.0165,810.5039 184.0765,809.2839 187.3065,810.3529 C187.8665,810.1239 188.9765,809.6639 189.5365,809.4329 C191.1665,804.5739 189.8865,799.4329 190.5565,794.4539 C194.0365,790.8439 197.5665,785.0939 203.3165,786.0339" id="Fill-32" fill="#000000"></path>
            <path d="M232.1368,787.6735 C235.2868,786.7335 239.0468,785.1335 241.9868,787.4935 C244.1468,789.3835 246.9468,792.1935 245.6868,795.3435 C244.3768,798.0235 242.0168,800.2535 239.1868,801.2335 C237.1368,801.3735 235.2968,800.2435 233.4368,799.5935 C232.3668,797.7435 231.1468,796.0135 229.9068,794.2835 C230.6968,792.0935 231.4868,789.9035 232.1368,787.6735" id="Fill-34" fill="#000000"></path>
            <path d="M270.7965,794.1335 C271.2665,789.7435 274.6365,786.9735 278.1265,784.7935 C280.2765,786.3735 283.9565,787.1735 284.2365,790.3035 C285.5965,796.3335 283.4465,802.5135 284.2965,808.6035 C284.9665,814.5035 283.2865,820.6535 285.3665,826.3635 C285.0365,830.0535 286.5465,833.7235 284.9165,837.2735 C286.5265,840.9235 284.7165,844.7835 285.7365,848.5535 C285.3465,852.5235 285.8965,856.5435 285.1965,860.5035 C286.9565,864.4435 284.4865,868.5735 286.1065,872.5335 C285.0865,873.3735 284.1165,874.2935 283.0265,875.0535 C280.7065,874.9935 278.4065,874.4435 276.0765,874.5535 C275.0465,872.6335 273.8065,870.8335 272.9665,868.8335 C272.3465,855.3635 273.2865,841.8835 272.6865,828.4035 C272.7465,825.9135 273.1265,823.3635 272.4465,820.9335 C271.0565,817.5235 272.8065,813.8435 270.8665,810.5435 C272.4765,805.8835 270.3865,801.1235 271.3965,796.3935 C271.2465,795.8335 270.9465,794.7035 270.7965,794.1335" id="Fill-36" fill="#000000"></path>
            <path d="M721.6699,775.2305 C723.4299,773.7195 725.4899,772.6295 727.5199,771.5305 C729.9199,772.5195 732.5199,772.1395 735.0499,772.3495 C736.9099,773.0395 738.1699,774.7095 739.2599,776.2995 C738.2199,778.7305 739.3199,781.2505 739.0999,783.7305 C737.9999,785.3795 736.6799,786.8705 735.4199,788.4105 C731.7699,788.9295 728.1999,788.3895 724.6899,787.4295 C723.3609,785.8795 720.4099,784.4905 721.3499,782.0495 C722.3099,779.8395 722.3199,777.5095 721.6699,775.2305" id="Fill-38" fill="#000000"></path>
            <path d="M938.7695,773.4404 C940.7505,772.9204 942.7595,771.9804 944.8605,772.3304 C946.3495,773.2104 947.4295,774.6604 948.5095,776.0094 C948.5095,780.0194 948.1505,784.0304 947.8895,788.0304 C948.2305,790.4104 948.5595,792.8204 947.7995,795.1694 C949.1205,797.6394 949.1695,800.2504 948.4295,802.9104 C949.1795,805.6794 949.3895,808.4604 948.3495,811.2194 C948.5305,813.7904 949.0305,816.3704 948.0705,818.9004 C948.9395,822.2804 948.4605,825.8094 949.1695,829.2304 C949.6695,831.2904 948.2305,833.0804 947.6905,834.9804 C948.2405,837.9294 950.1795,840.7104 949.5705,843.8204 C949.0195,849.9194 949.9605,856.1504 948.8205,862.1904 C951.0195,865.9604 949.0305,869.9904 948.6295,873.9694 C947.7995,877.3704 943.5995,876.7404 940.9605,877.3094 C939.2805,877.8304 938.0405,876.4604 936.7805,875.6794 C936.3605,875.5194 935.5405,875.1904 935.1205,875.0194 C935.7805,870.6294 934.8895,866.2304 935.4505,861.8494 C935.0005,857.9104 935.7995,853.9404 935.0805,850.0304 C935.6295,847.6794 936.0005,845.2804 935.1605,842.9604 C936.7105,838.7994 933.2005,834.8604 935.3495,830.8494 C934.4905,828.2194 934.2505,825.5804 935.1695,822.9294 C934.5195,820.2194 934.6895,817.5304 935.3495,814.8494 C935.1505,812.2694 934.8705,809.6504 935.8095,807.1604 C934.6795,803.4604 936.0005,799.6604 935.1295,795.9404 C936.4805,790.4004 934.8495,784.7694 935.3305,779.1294 C936.3305,777.1504 937.6505,775.3604 938.7695,773.4404" id="Fill-40" fill="#000000"></path>
            <path d="M677.2998,776.8203 C678.2198,777.0993 679.1398,777.3893 680.0708,777.7193 C680.8208,779.3603 681.5398,781.0193 682.1998,782.7193 C681.5398,784.8403 681.5898,787.0703 681.9498,789.2593 C681.6908,791.7503 680.3398,794.5193 681.9098,796.8403 C683.1298,799.6103 686.1908,802.1603 689.3608,800.8803 C693.0798,799.3703 696.5598,801.6103 699.4898,803.7103 C699.6298,806.7193 698.2798,809.4203 697.1698,812.1303 C693.2898,812.6303 689.3098,813.8493 685.7498,811.5993 C683.8898,813.2193 682.2198,815.0303 680.5298,816.8203 C682.7598,820.5703 681.2998,824.9293 682.1798,829.0003 C681.1698,832.2993 682.1398,835.7003 681.6198,839.0503 C680.9898,841.7503 682.9808,844.4293 681.6998,847.0503 C680.9998,848.6903 681.7198,850.4103 681.9808,852.0803 C680.4298,855.9403 682.0708,859.5403 683.8798,862.9603 C685.9408,863.5803 687.9498,864.3703 689.9198,865.2593 C694.0708,863.1793 700.0298,865.4903 700.6108,870.3603 C701.5998,872.7103 699.1898,874.4103 698.0998,876.2003 C693.4698,876.9603 688.7998,877.7903 684.0798,877.4103 C679.4298,877.7403 676.3898,873.6903 673.1398,871.0503 C670.5498,869.2503 670.1398,865.8803 668.6698,863.3003 C669.1398,861.5803 669.5708,859.8303 669.2498,858.0503 C668.9198,854.6203 669.6398,851.1903 669.1698,847.7803 C670.2098,844.4103 668.8298,840.9803 669.5098,837.5993 C670.3098,833.0093 667.6108,828.4503 668.9998,823.9003 C669.6108,821.1703 670.5798,817.7993 668.3098,815.5403 C666.3498,812.8803 662.9408,812.2403 659.8608,812.1303 C658.9898,810.1103 657.9698,808.1503 657.3398,806.0593 C656.6698,803.5703 659.2498,802.3203 660.6508,800.7903 C665.6198,801.3493 670.7698,795.9903 668.7998,791.1203 C667.6698,786.4003 668.5898,781.3893 671.0708,777.2693 C673.0098,776.5593 675.2798,777.7693 677.2998,776.8203" id="Fill-42" fill="#000000"></path>
            <path d="M332.8765,811.0632 C337.2165,809.7232 341.6365,808.5832 346.1765,808.1032 C349.5365,809.5832 352.2665,812.0532 355.2965,814.0432 C358.9965,816.0532 362.9665,813.9732 366.0565,811.8332 C366.8465,811.8532 368.4165,811.8932 369.2065,811.9142 C372.0465,809.9142 375.1565,808.3532 378.2865,806.8642 C380.6465,807.9142 382.9665,809.0532 385.1465,810.4632 C389.6065,810.2332 392.8265,813.9332 395.4365,817.0832 C395.0865,819.9432 395.8065,822.6932 396.8565,825.3332 C396.0865,829.0832 397.0465,832.8432 396.4765,836.6032 C396.6965,842.1932 397.5965,847.8742 396.3565,853.4142 C397.1865,859.9432 398.5765,866.7232 397.1265,873.2232 C394.5965,875.9632 390.0265,875.6332 387.0065,873.7842 C386.0765,871.4832 383.9065,869.2532 385.4065,866.7132 C386.8865,863.9732 383.9265,861.2532 385.3465,858.5232 C386.3365,856.1142 384.1765,853.7132 385.2965,851.3242 C386.0165,849.3332 385.5065,847.2732 385.2365,845.2732 C386.2865,842.6432 385.7965,840.0232 385.0365,837.4232 C386.2965,833.4542 384.8065,829.4142 385.9065,825.4232 C384.1065,821.8742 381.5465,818.4432 377.6065,817.1732 C374.2165,818.1242 370.7665,819.1332 368.2165,821.7132 C367.6065,821.7732 366.3865,821.8932 365.7765,821.9542 C364.2465,823.3032 361.9765,824.1242 361.1665,826.1032 C360.8865,829.8642 360.6465,833.6832 361.5065,837.4032 C359.7465,841.0432 361.8865,844.7732 360.6665,848.4732 C362.7465,852.4232 359.7465,856.4332 361.1465,860.4632 C360.5665,863.1642 361.1165,865.8432 361.5765,868.5232 C361.2865,870.7232 360.4465,872.8432 359.2965,874.7442 C355.8365,875.7132 352.0765,875.1832 349.8765,872.1142 C352.0365,868.2932 347.9365,864.2732 350.6065,860.4942 C349.0365,858.3332 349.5865,855.8132 350.2665,853.4632 C351.0565,851.5932 349.5665,849.9732 348.8965,848.3832 C349.4165,847.4332 349.9465,846.5132 350.4665,845.5832 C349.8565,844.5932 349.2365,843.6032 348.7065,842.5932 C348.6865,840.0632 351.1165,837.9032 350.0665,835.3332 C349.2965,833.2442 349.8765,831.1642 350.6665,829.2042 C350.1165,827.9032 349.5765,826.6142 349.0365,825.3432 C348.9765,824.2132 348.8565,823.1032 348.6965,822.0132 C345.6165,819.9542 341.9965,817.8832 338.1465,818.8242 C331.7665,818.9032 327.1965,824.1332 324.2765,829.2332 C325.0065,835.5832 323.3765,842.2332 325.6565,848.3642 C325.9065,850.5832 324.0565,852.7932 325.3565,854.9542 C326.6965,857.0432 324.7265,859.1432 325.1965,861.2932 C326.3665,865.0032 324.4365,868.7442 325.6765,872.5032 C322.2165,876.8832 314.4165,874.6032 312.8465,869.5742 C312.7465,867.8242 313.5765,866.1242 313.2265,864.4142 C311.8365,860.5132 314.3965,856.7042 313.3965,852.7442 C314.4565,848.8432 312.1765,845.1242 313.8565,841.3432 C312.1865,837.6832 314.6565,833.8242 312.9265,830.2532 C312.3265,828.2732 314.0565,826.3332 313.4865,824.3132 C312.6565,820.5932 314.4965,816.7932 312.9765,813.1832 C314.6465,811.6032 316.7165,809.6032 319.2365,810.6532 C321.2965,811.6832 323.2765,812.8832 325.3465,813.9032 C328.0665,813.5832 330.6165,812.6032 332.8765,811.0632" id="Fill-44" fill="#000000"></path>
            <path d="M236.5264,810.2937 C238.9464,809.9337 242.0464,809.8527 243.5564,812.1837 C244.1464,815.1837 243.4664,818.3137 244.0264,821.3527 C243.7564,825.3637 244.0064,829.3837 243.5964,833.3837 C244.6264,840.6837 242.3564,848.4237 245.4664,855.3737 C245.7064,861.0037 245.5964,866.6837 245.6564,872.3337 C244.0964,874.6927 241.6864,875.7537 239.1364,874.1027 C238.3564,874.4027 236.7864,875.0227 236.0064,875.3337 C234.5464,873.6527 232.5464,871.9137 232.7164,869.4737 C232.8464,863.4027 232.3264,857.3337 232.6464,851.2727 C233.2764,844.9827 232.7664,838.6527 232.0764,832.4027 C232.9864,826.9637 232.6764,821.4337 230.6964,816.3037 C232.0664,813.9027 233.5664,810.9027 236.5264,810.2937" id="Fill-46" fill="#000000"></path>
            <path d="M599.8496,799.8799 C602.2996,799.7999 604.7806,799.9599 607.0996,798.9499 C614.1396,798.3799 621.3096,800.7309 627.1506,804.7199 C630.2306,807.0599 633.9906,809.0099 635.5396,812.7999 C634.9196,814.6699 634.1106,816.4699 633.3396,818.2899 C631.2096,818.6699 629.1106,819.2499 626.9806,819.5799 C624.4196,818.0099 622.3606,815.7899 620.1396,813.8099 C618.0796,812.2899 615.3296,812.3699 612.8896,812.3999 C610.2896,812.8499 607.9596,810.0999 605.4196,811.6699 C601.3796,812.3199 599.1606,816.3699 598.7196,820.0599 C600.2406,825.0599 604.2996,828.8699 609.1696,830.5499 C616.0796,830.9199 623.0096,833.0399 628.5706,837.2399 C632.7696,839.7399 635.6696,843.7699 638.9406,847.2899 C641.6606,850.8899 639.8896,855.3799 641.2896,859.3599 C636.1796,866.5899 630.1796,874.4409 621.1896,876.7399 C618.4296,877.1199 615.9296,878.2899 613.3606,879.2799 C610.8896,878.4199 608.2806,878.2499 605.6906,878.2199 C603.6796,876.8899 601.5796,875.7199 599.4296,874.6599 C596.4396,872.9409 592.5096,873.6099 589.9596,870.9999 C587.7006,868.5799 583.1796,866.4999 584.5896,862.4809 C585.1396,859.1599 587.5796,856.4899 591.0596,856.2799 C596.2096,856.4299 599.4196,860.9599 603.4106,863.5399 C607.0196,864.4099 610.5706,865.5299 614.1106,866.6999 C618.1606,865.7699 621.6396,863.3499 625.1506,861.2499 C626.1696,858.3499 627.5896,855.0099 625.9406,852.0699 C623.7896,848.6199 620.3496,845.1099 615.9696,845.2699 C612.1896,844.7309 608.7496,842.7899 604.9296,842.3599 C601.7006,842.0199 599.2406,839.7309 596.6396,838.0299 C592.8096,835.6699 590.4006,831.7499 587.5706,828.3799 C585.2096,825.9699 585.4006,822.1909 585.5096,819.0799 C587.2806,815.0999 588.1506,810.5199 591.3796,807.3699 C594.0896,804.7699 596.4906,801.6699 599.8496,799.8799" id="Fill-48" fill="#000000"></path>
            <path d="M722.4902,805.6602 C723.9902,802.8092 726.6802,800.8802 729.6602,799.8002 C733.0002,800.9002 736.2502,802.6702 737.8802,805.9602 C737.9202,807.9502 736.5102,809.8492 737.0402,811.8402 C738.4902,815.2302 735.5502,818.6102 737.5192,821.9692 C735.7402,825.8802 737.5102,830.0192 736.4692,834.0702 C737.2502,838.0002 737.0402,842.0502 737.8892,845.9692 C736.8202,849.2902 738.0192,852.7192 737.3202,856.0902 C737.4502,862.5402 738.5992,869.1802 736.1202,875.3602 C733.1202,876.4602 729.4202,878.8892 726.4602,876.4502 C722.8802,874.1302 720.6302,868.9402 722.3302,864.9402 C722.8702,863.3092 721.6202,861.8002 721.2692,860.2602 C722.7192,858.0302 723.0702,855.4002 721.9302,852.9602 C722.6902,850.6392 722.8492,848.2192 722.0402,845.9002 C722.9102,838.9692 721.7102,831.8702 723.3202,825.0102 C722.5402,822.4202 722.5302,819.7902 722.7602,817.1302 C721.6502,813.2102 724.6602,809.4002 722.4902,805.6602" id="Fill-50" fill="#000000"></path>
            <path d="M760.8896,806.9502 C762.7306,803.4902 765.9396,800.6702 769.8896,800.0192 C774.7496,801.7202 779.1606,806.8492 777.5196,812.2502 C779.3896,816.1202 782.4596,819.4702 783.1896,823.8092 C783.6506,827.3302 785.4006,830.5302 785.6906,834.0902 C786.0096,838.4302 790.8396,841.5002 789.4906,846.0902 C789.2996,850.1902 792.1896,853.6602 795.7406,855.3802 C796.1906,855.3802 797.1106,855.3892 797.5596,855.3892 C798.1606,851.3002 799.1506,847.1602 801.5496,843.7302 C801.7306,840.1202 802.3496,836.3802 804.6906,833.5002 C806.3296,831.7202 805.3496,829.2692 805.4906,827.1502 C806.8896,824.2202 807.6396,821.0702 808.3896,817.9302 C809.0896,814.8402 811.4696,812.3702 811.7406,809.1302 C812.9906,805.6702 814.7096,802.3892 818.0196,800.4802 C820.9196,800.2802 823.7896,800.9802 826.6396,801.4802 C826.6896,804.3092 828.1396,807.6202 826.2196,810.1102 C825.4406,811.2692 824.5196,812.4502 824.5796,813.9402 C824.5096,819.0192 818.8396,822.9002 821.2196,828.1602 C819.7696,831.4302 817.2996,834.3002 816.8396,837.9402 C816.4296,840.9702 814.2196,843.2902 813.2406,846.1202 C812.3206,847.8802 812.8496,849.9502 812.3496,851.8302 C810.7896,854.3492 808.0706,856.6392 808.6396,859.9302 C809.2006,864.0102 806.6106,867.4602 804.5096,870.6802 C804.4196,871.2102 804.2596,872.2802 804.1796,872.8202 C800.6906,875.5902 796.5496,877.8702 791.9806,877.5802 C785.9596,874.7102 782.8496,868.3802 782.3096,861.9702 C779.7196,859.0302 779.4796,855.0402 778.2006,851.5192 C777.3796,849.3002 776.7596,847.0102 776.2806,844.7002 C774.4106,841.8802 774.2296,838.2602 771.9596,835.6902 C771.4506,834.4602 770.9296,833.2502 770.5096,832.0192 C769.7996,830.0102 771.3496,827.7202 770.0706,825.8802 C768.6606,823.3602 767.1506,820.8892 765.6206,818.4502 C765.7806,817.5992 766.1106,815.8892 766.2806,815.0302 C764.2596,812.4902 761.9296,810.1102 760.8896,806.9502" id="Fill-52" fill="#000000"></path>
            <path d="M520.5498,817.8896 C522.7398,815.5306 524.4998,812.3606 527.8698,811.5706 C531.7698,810.4596 536.3298,808.4506 540.0898,810.9106 C542.6798,812.2406 544.9198,814.1196 547.3098,815.7996 C549.3798,819.2196 551.3198,822.7306 553.5198,826.0896 C552.0298,827.6396 550.6298,829.3206 548.8998,830.6296 C545.9698,830.4806 542.9898,829.6696 540.1598,830.9106 C536.1698,829.7196 532.0698,831.1296 528.0298,830.3606 C524.2098,831.4506 520.5998,829.8496 517.2498,828.1906 C517.8198,824.5496 520.5798,821.6796 520.5498,817.8896 M559.7798,854.1906 C555.0398,856.3696 551.6398,860.3796 547.4098,863.3096 C543.1198,863.3796 539.0298,864.7096 535.0598,866.2096 C531.1498,865.1396 527.7498,862.7596 524.5198,860.4106 C521.4098,855.7696 517.4998,851.4406 516.5098,845.7496 C519.6198,840.1106 526.6198,841.1396 532.0198,841.4196 C539.9698,841.2596 547.9398,841.4406 555.8798,841.9196 C558.0198,841.6506 560.1908,841.5896 562.3298,841.2496 C564.1298,838.1606 564.4698,834.3896 565.5598,831.0196 C564.8698,826.8896 561.3298,823.5706 562.3608,819.1606 C560.5498,816.3796 559.9998,812.8396 557.5398,810.5096 C553.7798,806.5596 549.5698,802.9906 544.8898,800.1796 C540.0298,798.5996 534.8798,798.7996 529.8298,798.5496 C524.9898,800.8696 520.3498,803.7096 516.4998,807.4806 C513.0298,809.7806 510.5598,813.2096 508.7698,816.9106 C508.5498,819.3496 508.3998,821.8606 506.8598,823.9006 C506.3698,825.6106 505.7798,827.2996 505.3098,829.0196 C505.6898,832.7196 504.3798,836.3606 505.4998,840.0096 C503.3498,844.4806 505.7898,848.8606 507.4098,853.0596 C506.7998,857.0596 509.6498,860.2306 511.2998,863.5896 C512.9198,866.1606 513.5998,869.9406 516.8098,871.0496 C520.6698,871.9196 523.5798,874.7496 527.0698,876.4406 C532.2298,877.6606 537.6698,877.4696 542.8898,877.1396 C547.5498,874.4506 553.0498,873.6606 557.7198,871.0596 C560.5708,867.8896 564.5198,865.3206 565.6598,860.9806 C566.1108,857.2996 562.0298,856.0796 559.7798,854.1906" id="Fill-54" fill="#000000"></path>
            <path d="M890.8896,845.04 C890.5706,848.81 891.6396,853.21 889.3206,856.49 C885.6106,860.37 880.5796,862.53 876.1106,865.35 C873.0396,865.07 870.0196,865.49 867.0306,866.1 C862.5796,864.84 860.1206,860.76 858.3206,856.83 C859.9006,850.55 864.4806,845.02 870.5796,842.69 C874.5796,840.34 879.4906,841.42 883.5496,839.38 C887.0306,836.85 891.3896,841.43 890.8896,845.04 M904.1606,855.92 C902.7096,852.88 905.2596,850 904.3096,846.95 C903.7996,843.95 904.8796,840.91 904.0096,837.94 C904.5706,835.03 904.6296,832.07 904.1396,829.16 C904.9596,825.94 903.9596,822.72 903.8796,819.49 C903.8796,816.51 902.3096,813.66 899.9506,811.9 C897.8796,808.2 894.7596,805.17 891.3296,802.76 C884.0096,799.92 875.9106,798.43 868.2406,800.89 C862.6896,799.8 859.0496,804.67 854.8296,807.24 C854.2896,808.21 853.7596,809.19 853.2406,810.18 C852.1206,810.35 851.0196,810.54 849.9296,810.74 C849.2296,812.81 848.1506,814.82 848.0396,817.04 C849.0596,819.22 850.6606,821.36 852.8796,822.43 C855.2896,822.481 857.7196,822.11 860.0306,821.38 C864.4006,818.2 867.8606,813.6 872.9506,811.5 C875.7096,812.21 878.4906,812.35 881.2996,811.72 C885.2196,813.64 888.1396,817.11 890.3496,820.81 C890.8396,824.5 887.1396,827.55 883.7006,827.89 C880.9596,829.4 877.7096,827.231 875.2006,829.1 C872.7996,830.61 870.1206,831.56 867.3206,831.91 C863.1106,832.28 860.1896,835.66 856.4996,837.33 C855.1506,838.03 853.4296,838.3 852.6396,839.75 C849.7996,843.76 846.7196,847.65 844.4696,852.03 C844.6796,854.65 844.6606,857.27 844.4396,859.9 C845.7806,864.75 848.9506,868.92 853.0706,871.76 C855.0096,874.56 858.3296,875.57 861.1696,877.16 C862.6606,877.93 864.0796,879.5 865.9006,878.59 C868.2196,877.74 870.6396,877.45 873.0996,877.3 C875.9996,877.09 878.2806,875.15 880.8096,873.94 C883.9006,872.09 887.6296,872.63 891.0396,871.91 C892.0796,872.9 892.9196,874.07 893.8206,875.2 C895.8696,875.94 897.9196,876.72 900.0096,877.39 C901.9106,876.13 904.3396,875.27 905.4006,873.09 C906.4996,867.29 903.4596,861.72 904.1606,855.92" id="Fill-56" fill="#000000"></path>
        </g>
    </g>
</svg>